<svg width="432" height="77" viewBox="0 0 432 77" fill="none" xmlns="http://www.w3.org/2000/svg">
<path d="M21.6 54.56C19.6267 54.56 18.72 54.24 18.88 53.6C19.0934 52.7467 19.5467 51.5733 20.24 50.08C20.9334 48.5333 21.8934 46.6667 23.12 44.48C24.1867 42.5067 25.28 40.6133 26.4 38.8C27.5734 36.9333 28.7467 35.1467 29.92 33.44C33.3334 28.48 36 24.5867 37.92 21.76C39.84 18.9333 41.0134 17.1733 41.44 16.48C45.6534 10.0267 47.76 5.76001 47.76 3.68001C47.76 2.98667 47.52 2.53334 47.04 2.32001C45.6 1.68001 43.9467 1.36001 42.08 1.36001C37.92 1.36001 31.68 3.14667 23.36 6.72001C20.7467 7.84001 18.32 9.12001 16.08 10.56C13.84 12 11.76 13.5733 9.84004 15.28C5.62671 19.1733 3.52004 22.7467 3.52004 26C3.52004 27.3333 3.86671 28.56 4.56004 29.68C5.30671 30.7467 6.90671 31.4133 9.36004 31.68C11.3867 31.9467 12.2934 32.2667 12.08 32.64C11.5467 33.6533 10.16 34.16 7.92004 34.16C6.00004 34.16 4.10671 33.52 2.24004 32.24C0.746711 31.2267 4.39882e-05 29.6 4.39882e-05 27.36C4.39882e-05 24.2667 1.12004 21.28 3.36004 18.4C5.17338 16.1067 7.92004 13.7067 11.6 11.2C15.8667 8.21334 20.2667 5.97334 24.8 4.48001C33.6 1.49334 39.8667 8.58307e-06 43.6 8.58307e-06C48.0267 8.58307e-06 50.8 1.41334 51.92 4.24001C52.4 5.46667 49.2 11.1733 42.32 21.36C37.8934 27.92 34.16 33.6533 31.12 38.56C28.1334 43.4133 25.8134 47.4667 24.16 50.72V50.88C24.16 51.1467 24.3467 51.4933 24.72 51.92C25.0934 52.3467 25.28 52.6933 25.28 52.96C25.1734 54.0267 23.9467 54.56 21.6 54.56ZM70.64 62.72C69.9467 62.72 69.2267 62.5067 68.48 62.08C65.44 60.2667 60.1334 54.9867 52.56 46.24C44.56 36.8533 40.56 30.6133 40.56 27.52C40.56 26.9333 40.6667 26.5333 40.88 26.32C41.4667 25.6267 42.6934 24.64 44.56 23.36C46.4267 22.0267 48.9334 20.4 52.08 18.48C54.6934 16.8267 57.3067 15.2533 59.92 13.76C62.5334 12.2133 65.1467 10.7467 67.76 9.36001C75.0667 5.41334 81.0134 3.36001 85.6 3.20001H85.92C87.1467 3.20001 87.76 3.54667 87.76 4.24001C87.76 4.77334 87.3334 5.06667 86.48 5.12001C76.4 6.66668 62.5334 13.7867 44.88 26.48C44.72 26.5333 44.64 26.72 44.64 27.04C44.64 28.3733 46.1067 31.1733 49.04 35.44C50.5334 37.5733 52.08 39.7067 53.68 41.84C55.3334 43.92 57.0667 45.9733 58.88 48C65.3867 55.2 70.1067 58.8 73.04 58.8C73.68 58.8 74.32 58.6133 74.96 58.24C75.6 57.8667 75.9734 57.68 76.08 57.68H76.4C76.88 57.68 77.12 57.84 77.12 58.16C77.12 58.96 76.32 59.8133 74.72 60.72C74.0267 61.1467 73.3067 61.5733 72.56 62C71.8667 62.48 71.2267 62.72 70.64 62.72ZM84.07 52.64C83.0034 52.64 82.0167 52.2933 81.11 51.6C80.2567 50.9067 79.75 50.24 79.59 49.6C79.43 48.8533 80.4167 46.1867 82.55 41.6L80.71 44.24C79.91 45.4133 79.11 46.4533 78.31 47.36C77.51 48.2667 76.7634 49.0667 76.07 49.76C74.0434 51.68 72.3367 52.48 70.95 52.16C67.75 51.4133 66.15 49.6 66.15 46.72C66.15 44.4267 67.2434 41.4933 69.43 37.92C70.1234 36.8533 71.0034 35.7867 72.07 34.72C73.1367 33.6533 74.3634 32.6133 75.75 31.6C79.3234 28.9867 82.7634 27.68 86.07 27.68C88.0967 27.68 90.0167 28.2133 91.83 29.28C92.4167 29.7067 92.71 30.16 92.71 30.64C92.71 31.0133 92.6034 31.2 92.39 31.2C92.3367 31.2 92.2834 31.1733 92.23 31.12C91.11 29.8933 89.6167 29.28 87.75 29.28C85.5634 29.28 83.19 30.1067 80.63 31.76C78.07 33.4133 75.7767 35.6267 73.75 38.4C70.87 42.4 69.43 45.6533 69.43 48.16C69.43 49.6 69.9367 50.5067 70.95 50.88C72.23 51.4133 74.95 49.04 79.11 43.76C80.8167 41.68 82.23 39.8133 83.35 38.16C84.5234 36.5067 85.4567 35.0933 86.15 33.92C86.47 33.3333 87.0567 33.04 87.91 33.04C89.51 33.04 90.31 33.52 90.31 34.48C90.31 34.64 90.2834 34.7467 90.23 34.8C85.59 42.16 83.27 47.1467 83.27 49.76C83.27 50.4 83.4567 50.7467 83.83 50.8C84.95 51.12 86.8167 50.2933 89.43 48.32C92.5767 45.9733 95.5367 42.8533 98.31 38.96C98.8967 38.16 99.43 37.76 99.91 37.76C100.07 37.76 100.15 37.8133 100.15 37.92C100.15 38.1867 99.91 38.6933 99.43 39.44C98.31 41.2 97.0567 42.8533 95.67 44.4C94.3367 45.9467 92.8434 47.3867 91.19 48.72C88.8434 50.6933 86.9234 51.92 85.43 52.4C85.0567 52.56 84.6034 52.64 84.07 52.64ZM112.098 52.56C110.925 52.6667 109.805 52.3733 108.738 51.68C107.672 50.9333 107.138 50.1067 107.138 49.2C107.138 47.5467 108.712 44.3733 111.858 39.68C115.325 34.5067 117.058 31.52 117.058 30.72C117.058 30.24 116.818 29.9733 116.338 29.92C114.792 30.0267 112.392 31.5733 109.138 34.56C104.498 38.88 100.152 44.7467 96.0982 52.16C95.9915 52.2667 95.6982 52.32 95.2182 52.32C92.9248 52.32 91.8848 52 92.0982 51.36C92.6848 49.8133 93.6982 47.4933 95.1382 44.4C96.6315 41.3067 98.5515 37.4133 100.898 32.72C102.498 29.5733 104.125 28 105.778 28C106.312 28 106.658 28.1333 106.818 28.4C106.925 28.56 105.805 30.8533 103.458 35.28C102.338 37.4133 101.458 39.12 100.818 40.4C100.178 41.6267 99.7248 42.4267 99.4582 42.8C100.365 41.8933 101.432 40.7733 102.658 39.44C103.938 38.1067 105.405 36.56 107.058 34.8C109.672 31.8667 112.552 29.68 115.698 28.24C116.445 27.92 117.298 27.76 118.258 27.76C120.445 27.76 121.538 28.56 121.538 30.16C121.538 31.1733 121.032 32.3733 120.018 33.76C114.258 41.8133 111.378 47.2267 111.378 50C111.378 50.5867 111.565 50.96 111.938 51.12C112.792 51.4933 114.898 50.6133 118.258 48.48C122.205 45.92 125.565 42.7467 128.338 38.96C128.925 38.16 129.458 37.76 129.938 37.76C130.098 37.76 130.178 37.8133 130.178 37.92C130.178 38.1867 129.938 38.6933 129.458 39.44C127.112 43.12 123.858 46.3733 119.698 49.2C115.965 51.6533 113.432 52.7733 112.098 52.56ZM120.493 76.4C118.466 76.4 117.453 75.3867 117.453 73.36C117.453 71.7067 118.173 69.7333 119.613 67.44C120.519 66 121.666 64.4533 123.053 62.8C124.493 61.2 126.199 59.4933 128.173 57.68C131.693 54.2667 135.426 51.3067 139.373 48.8C139.853 47.6267 140.386 46.1867 140.973 44.48C141.559 42.7733 142.226 40.7467 142.973 38.4C142.813 38.7733 142.226 39.5467 141.213 40.72C140.253 41.84 138.839 43.4133 136.973 45.44C132.493 50.4 129.319 52.64 127.453 52.16C124.573 51.4133 123.133 49.8133 123.133 47.36C123.133 44.96 124.546 41.8133 127.373 37.92C128.173 36.8533 129.159 35.7867 130.333 34.72C131.506 33.6533 132.839 32.6133 134.333 31.6C138.119 28.9867 141.693 27.68 145.053 27.68C147.133 27.68 149.026 28.2133 150.733 29.28C151.213 29.6 151.453 30 151.453 30.48C151.453 30.96 151.346 31.2 151.133 31.2C151.079 31.2 151.026 31.1733 150.973 31.12C149.906 29.8933 148.439 29.28 146.573 29.28C144.386 29.28 141.933 30.1067 139.213 31.76C136.493 33.4133 133.986 35.6267 131.693 38.4C128.119 42.7733 126.333 46.1867 126.333 48.64C126.333 49.76 126.759 50.5067 127.613 50.88C128.786 51.36 131.746 48.9867 136.493 43.76C138.359 41.68 139.959 39.8133 141.293 38.16C142.679 36.5067 143.773 35.0933 144.573 33.92C144.946 33.3867 145.479 33.12 146.173 33.12C147.453 33.12 148.093 33.6 148.093 34.56C148.093 34.7733 148.013 35.0133 147.853 35.28C147.479 36.3467 146.973 37.7867 146.333 39.6C145.693 41.36 144.919 43.4933 144.013 46C145.719 44.9867 147.079 44.48 148.093 44.48C148.519 44.48 148.733 44.5867 148.733 44.8C148.733 45.3333 148.066 45.84 146.733 46.32C146.199 46.5333 145.613 46.7733 144.973 47.04C144.386 47.3067 143.746 47.6267 143.053 48C139.319 57.28 134.813 64.9333 129.533 70.96C126.333 74.5867 123.319 76.4 120.493 76.4ZM122.173 74.72C123.186 74.72 124.413 73.8933 125.853 72.24C130.599 66.9067 134.759 59.92 138.333 51.28C131.239 56.56 125.959 62.0533 122.493 67.76C121.319 69.6267 120.733 71.28 120.733 72.72C120.733 74.0533 121.213 74.72 122.173 74.72ZM159.118 26.4C158.958 26.4 158.878 26.3467 158.878 26.24C158.878 26.0267 159.198 25.6 159.838 24.96C160.532 24.32 161.198 23.5733 161.838 22.72C162.318 22.0267 162.718 21.3067 163.038 20.56C163.412 19.8133 163.598 19.1467 163.598 18.56C163.598 17.9733 163.465 17.5467 163.198 17.28C162.985 17.0133 162.638 16.7467 162.158 16.48C161.785 16.2133 161.412 15.92 161.038 15.6C160.718 15.2267 160.558 14.7467 160.558 14.16C160.558 13.2 161.252 12.2933 162.638 11.44C163.065 11.12 163.492 10.96 163.918 10.96C164.825 10.96 165.705 11.2267 166.558 11.76C167.412 12.2933 167.838 13.2 167.838 14.48C167.838 15.44 167.545 16.5867 166.958 17.92C166.372 19.2533 165.625 20.56 164.718 21.84C163.812 23.12 162.852 24.2133 161.838 25.12C160.878 25.9733 159.972 26.4 159.118 26.4ZM177.097 55.04C176.884 55.04 176.777 54.96 176.777 54.8C176.777 54.1067 178.59 52.8267 182.217 50.96C183.124 50.5333 183.95 50.1067 184.697 49.68C185.444 49.2 186.084 48.7733 186.617 48.4C189.87 46 191.497 43.92 191.497 42.16C191.497 40.8267 190.19 40.16 187.577 40.16C181.497 40.0533 178.457 38.72 178.457 36.16C178.457 35.04 178.937 33.9733 179.897 32.96C181.017 31.68 182.884 30.4533 185.497 29.28C188.324 28 190.91 27.36 193.257 27.36C195.337 27.36 196.91 27.8667 197.977 28.88C198.457 29.36 198.697 29.9467 198.697 30.64C198.697 31.3867 198.457 32.0533 197.977 32.64C197.497 33.2267 196.964 33.52 196.377 33.52C195.31 33.52 194.724 32.8 194.617 31.36C194.617 30.3467 194.457 29.76 194.137 29.6C193.817 29.44 192.964 29.36 191.577 29.36C189.817 29.36 187.844 29.9467 185.657 31.12C183.044 32.4533 181.817 34.0533 181.977 35.92C182.084 36.9867 184.11 37.52 188.057 37.52C193.444 37.52 196.137 38.8267 196.137 41.44C196.137 44.2667 193.817 47.0933 189.177 49.92C186.244 51.7333 182.67 53.3333 178.457 54.72C177.87 54.9333 177.417 55.04 177.097 55.04ZM220.92 53.04C218.84 53.04 217.24 52.16 216.12 50.4C216.067 50.3467 216.04 50.16 216.04 49.84C216.04 48.56 216.867 45.92 218.52 41.92C219.267 40.1067 220.013 38.4 220.76 36.8C221.56 35.1467 222.36 33.5733 223.16 32.08C227.64 23.8133 231.693 17.28 235.32 12.48C236.173 11.4133 237.8 10.9867 240.2 11.2C240.733 11.2533 241 11.4933 241 11.92C241 12.5067 240.813 12.9067 240.44 13.12C236.067 16.48 230.227 25.3333 222.92 39.68C223.187 39.4133 223.773 38.8267 224.68 37.92C225.587 37.0133 226.867 35.76 228.52 34.16C232.68 30.16 235.693 28.16 237.56 28.16C237.933 28.2667 238.44 28.3733 239.08 28.48C239.72 28.5333 240.467 28.6133 241.32 28.72C242.28 28.72 242.76 29.36 242.76 30.64C242.76 34.2133 240.68 38.4533 236.52 43.36C234.387 45.8667 231.96 48.0267 229.24 49.84C226.093 51.9733 223.32 53.04 220.92 53.04ZM219.96 50.48C221.613 50.48 223.827 49.5733 226.6 47.76C228.04 46.8533 229.347 45.8667 230.52 44.8C231.693 43.7333 232.707 42.6133 233.56 41.44C237.08 36.6933 238.84 33.28 238.84 31.2C238.84 30.4 238.493 30 237.8 30C235.827 30 232.04 32.7467 226.44 38.24C221.213 43.5733 218.6 47.2533 218.6 49.28C218.6 50.08 219.053 50.48 219.96 50.48ZM261.101 52.64C260.035 52.64 259.048 52.2933 258.141 51.6C257.288 50.9067 256.781 50.24 256.621 49.6C256.461 48.8533 257.448 46.1867 259.581 41.6L257.741 44.24C256.941 45.4133 256.141 46.4533 255.341 47.36C254.541 48.2667 253.795 49.0667 253.101 49.76C251.075 51.68 249.368 52.48 247.981 52.16C244.781 51.4133 243.181 49.6 243.181 46.72C243.181 44.4267 244.275 41.4933 246.461 37.92C247.155 36.8533 248.035 35.7867 249.101 34.72C250.168 33.6533 251.395 32.6133 252.781 31.6C256.355 28.9867 259.795 27.68 263.101 27.68C265.128 27.68 267.048 28.2133 268.861 29.28C269.448 29.7067 269.741 30.16 269.741 30.64C269.741 31.0133 269.635 31.2 269.421 31.2C269.368 31.2 269.315 31.1733 269.261 31.12C268.141 29.8933 266.648 29.28 264.781 29.28C262.595 29.28 260.221 30.1067 257.661 31.76C255.101 33.4133 252.808 35.6267 250.781 38.4C247.901 42.4 246.461 45.6533 246.461 48.16C246.461 49.6 246.968 50.5067 247.981 50.88C249.261 51.4133 251.981 49.04 256.141 43.76C257.848 41.68 259.261 39.8133 260.381 38.16C261.555 36.5067 262.488 35.0933 263.181 33.92C263.501 33.3333 264.088 33.04 264.941 33.04C266.541 33.04 267.341 33.52 267.341 34.48C267.341 34.64 267.315 34.7467 267.261 34.8C262.621 42.16 260.301 47.1467 260.301 49.76C260.301 50.4 260.488 50.7467 260.861 50.8C261.981 51.12 263.848 50.2933 266.461 48.32C269.608 45.9733 272.568 42.8533 275.341 38.96C275.928 38.16 276.461 37.76 276.941 37.76C277.101 37.76 277.181 37.8133 277.181 37.92C277.181 38.1867 276.941 38.6933 276.461 39.44C275.341 41.2 274.088 42.8533 272.701 44.4C271.368 45.9467 269.875 47.3867 268.221 48.72C265.875 50.6933 263.955 51.92 262.461 52.4C262.088 52.56 261.635 52.64 261.101 52.64ZM269.769 52.72C269.023 52.72 268.649 52.48 268.649 52C268.649 51.9467 268.703 51.76 268.809 51.44C271.316 46.64 274.276 39.7867 277.689 30.88C278.063 29.92 278.703 29.0933 279.609 28.4C280.516 27.6533 281.289 27.28 281.929 27.28C282.623 27.28 282.916 27.6533 282.809 28.4C282.276 29.52 281.636 30.96 280.889 32.72C280.143 34.48 279.263 36.5333 278.249 38.88C279.743 36.9067 281.956 34.6933 284.889 32.24C286.383 31.0133 287.663 30 288.729 29.2C289.849 28.4 290.783 27.8133 291.529 27.44C292.276 27.0667 293.103 26.88 294.009 26.88C295.076 26.88 295.983 27.1467 296.729 27.68C297.476 28.2133 297.849 28.8267 297.849 29.52C297.849 29.9467 297.636 30.4267 297.209 30.96C296.836 31.44 296.436 31.68 296.009 31.68C295.796 31.68 295.343 31.4667 294.649 31.04C294.009 30.56 293.316 30.32 292.569 30.32C291.769 30.32 290.836 30.56 289.769 31.04C282.996 34.08 277.156 40.9333 272.249 51.6C271.929 52.3467 271.103 52.72 269.769 52.72ZM337.928 52.56C336.755 52.6667 335.635 52.3733 334.568 51.68C333.502 50.9333 332.968 50.1067 332.968 49.2C332.968 47.5467 334.542 44.3733 337.688 39.68C341.155 34.5067 342.888 31.52 342.888 30.72C342.888 30.24 342.648 29.9733 342.168 29.92C340.622 30.0267 338.542 31.2533 335.928 33.6C331.928 37.28 327.902 42.8267 323.848 50.24C323.688 50.5067 323.075 50.64 322.008 50.64C320.835 50.64 320.248 50.16 320.248 49.2C320.248 47.5467 321.822 44.3733 324.968 39.68C328.435 34.5067 330.168 31.52 330.168 30.72C330.168 30.24 329.928 29.9733 329.448 29.92C327.902 30.0267 325.502 31.5733 322.248 34.56C317.555 38.9333 313.235 44.7467 309.288 52C309.235 52.1067 309.102 52.1867 308.888 52.24C308.728 52.2933 308.408 52.32 307.928 52.32C305.902 52.32 304.995 52 305.208 51.36C305.795 49.8133 306.808 47.4933 308.248 44.4C309.742 41.3067 311.662 37.4133 314.008 32.72C315.608 29.5733 317.235 28 318.888 28C319.422 28 319.768 28.1333 319.928 28.4C320.035 28.56 318.915 30.8533 316.568 35.28C315.448 37.4133 314.568 39.12 313.928 40.4C313.288 41.6267 312.835 42.4267 312.568 42.8C313.475 41.8933 314.542 40.7733 315.768 39.44C317.048 38.1067 318.515 36.56 320.168 34.8C322.782 31.8667 325.662 29.68 328.808 28.24C329.448 27.9733 330.115 27.84 330.808 27.84C333.102 27.84 334.248 28.8267 334.248 30.8C334.248 31.92 333.795 33.2533 332.888 34.8C335.342 31.92 338.222 29.7333 341.528 28.24C342.275 27.92 343.128 27.76 344.088 27.76C346.275 27.76 347.368 28.56 347.368 30.16C347.368 31.1733 346.862 32.3733 345.848 33.76C340.088 41.8133 337.208 47.2267 337.208 50C337.208 50.5867 337.395 50.96 337.768 51.12C338.568 51.44 340.088 50.96 342.328 49.68C345.155 48.0267 347.768 45.7067 350.168 42.72C350.488 42.3467 350.808 42.16 351.128 42.16C351.342 42.16 351.448 42.24 351.448 42.4C351.448 42.6133 351.288 42.9333 350.968 43.36C348.302 46.7733 345.662 49.28 343.048 50.88C340.915 52.2133 339.208 52.7733 337.928 52.56ZM355.396 52.4C353.849 52.4 352.489 52.0267 351.316 51.28C349.769 50.2133 348.996 48.6667 348.996 46.64C348.996 44.4533 349.929 41.7867 351.796 38.64C354.302 34.5333 357.982 30.9333 362.836 27.84C364.062 27.04 365.289 26.64 366.516 26.64C368.116 26.64 369.262 27.1467 369.956 28.16C370.382 28.7467 370.596 29.4133 370.596 30.16C370.596 32.4 368.782 34.8533 365.156 37.52C364.089 38.2667 362.942 38.96 361.716 39.6C360.542 40.1867 359.262 40.6133 357.876 40.88L354.436 41.6C353.156 43.8933 352.516 45.8133 352.516 47.36C352.516 49.4933 353.769 50.56 356.276 50.56C358.249 50.56 360.649 49.7333 363.476 48.08C367.262 45.8933 370.516 42.8533 373.236 38.96C373.662 38.32 374.062 38 374.436 38C374.596 38 374.676 38.1067 374.676 38.32C374.676 38.5867 374.489 38.9867 374.116 39.52C368.942 47.3067 363.102 51.5733 356.596 52.32C356.382 52.3733 356.169 52.4 355.956 52.4C355.796 52.4 355.609 52.4 355.396 52.4ZM355.396 40.24C356.889 40.24 358.809 39.5733 361.156 38.24C364.462 36.3733 366.782 33.9733 368.116 31.04C368.489 30.2933 368.676 29.68 368.676 29.2C368.676 28.72 368.489 28.48 368.116 28.48C367.422 28.48 366.009 29.3333 363.876 31.04C362.329 32.3733 360.809 33.8133 359.316 35.36C357.876 36.8533 356.489 38.4533 355.156 40.16C355.102 40.2133 355.182 40.24 355.396 40.24ZM388.192 52.56C387.019 52.6667 385.899 52.3733 384.832 51.68C383.765 50.9333 383.232 50.1067 383.232 49.2C383.232 47.5467 384.805 44.3733 387.952 39.68C391.419 34.5067 393.152 31.52 393.152 30.72C393.152 30.24 392.912 29.9733 392.432 29.92C390.885 30.0267 388.485 31.5733 385.232 34.56C380.592 38.88 376.245 44.7467 372.192 52.16C372.085 52.2667 371.792 52.32 371.312 52.32C369.019 52.32 367.979 52 368.192 51.36C368.779 49.8133 369.792 47.4933 371.232 44.4C372.725 41.3067 374.645 37.4133 376.992 32.72C378.592 29.5733 380.219 28 381.872 28C382.405 28 382.752 28.1333 382.912 28.4C383.019 28.56 381.899 30.8533 379.552 35.28C378.432 37.4133 377.552 39.12 376.912 40.4C376.272 41.6267 375.819 42.4267 375.552 42.8C376.459 41.8933 377.525 40.7733 378.752 39.44C380.032 38.1067 381.499 36.56 383.152 34.8C385.765 31.8667 388.645 29.68 391.792 28.24C392.539 27.92 393.392 27.76 394.352 27.76C396.539 27.76 397.632 28.56 397.632 30.16C397.632 31.1733 397.125 32.3733 396.112 33.76C390.352 41.8133 387.472 47.2267 387.472 50C387.472 50.5867 387.659 50.96 388.032 51.12C388.885 51.4933 390.992 50.6133 394.352 48.48C398.299 45.92 401.659 42.7467 404.432 38.96C405.019 38.16 405.552 37.76 406.032 37.76C406.192 37.76 406.272 37.8133 406.272 37.92C406.272 38.1867 406.032 38.6933 405.552 39.44C403.205 43.12 399.952 46.3733 395.792 49.2C392.059 51.6533 389.525 52.7733 388.192 52.56ZM417.226 52.32C415.84 52 414.533 51.2533 413.306 50.08C413.04 49.8133 412.906 49.4133 412.906 48.88C412.906 46.7467 413.866 43.76 415.786 39.92C414.293 41.84 413.066 43.4133 412.106 44.64C411.146 45.8667 410.426 46.7467 409.946 47.28C407.866 49.68 406.133 51.12 404.746 51.6C404.266 51.76 403.786 51.84 403.306 51.84C401.333 51.84 400.186 51.04 399.866 49.44C399.653 48.96 399.546 48.2933 399.546 47.44C399.546 44.8267 401.28 39.84 404.746 32.48C405.546 30.7733 406.453 29.92 407.466 29.92C408.213 29.92 408.933 30.48 409.626 31.6L406.266 38.24C405.093 40.5333 404.186 42.5067 403.546 44.16C402.96 45.8133 402.666 47.0933 402.666 48C402.666 49.28 403.093 49.92 403.946 49.92C405.333 49.92 407.573 48.1333 410.666 44.56C412.32 42.64 413.92 40.5067 415.466 38.16C417.066 35.8133 418.64 33.2533 420.186 30.48C420.506 29.84 420.986 29.52 421.626 29.52C422.16 29.52 422.666 29.76 423.146 30.24C423.68 30.6667 423.893 30.9867 423.786 31.2C418.613 41.92 416.026 48.08 416.026 49.68C416.026 50.32 416.24 50.5867 416.666 50.48C420.986 50.1067 425.626 46.2933 430.586 39.04C430.853 38.56 431.146 38.2933 431.466 38.24C431.786 38.1333 431.946 38.24 431.946 38.56C431.946 38.7733 431.84 39.0667 431.626 39.44C429.28 43.12 426.48 46.3467 423.226 49.12C420.346 51.52 418.346 52.5867 417.226 52.32Z" fill="#1E1E1E"/>
</svg>
